<mxfile host="app.diagrams.net" agent="Mozilla/5.0 (X11; Linux x86_64) AppleWebKit/537.36 (KHTML, like Gecko) Chrome/134.0.0.0 Safari/537.36" version="26.1.0">
  <diagram name="Page-1" id="y9UyXPSkoWivcYKGdeEb">
    <mxGraphModel dx="2459" dy="1994" grid="1" gridSize="10" guides="1" tooltips="1" connect="1" arrows="1" fold="1" page="1" pageScale="1" pageWidth="850" pageHeight="1100" math="0" shadow="0">
      <root>
        <mxCell id="0" />
        <mxCell id="1" parent="0" />
        <mxCell id="4ouf-nLLQ8_bu4aq0wLi-1" value="Filme" style="rounded=0;whiteSpace=wrap;html=1;" parent="1" vertex="1">
          <mxGeometry x="100" y="110" width="100" height="50" as="geometry" />
        </mxCell>
        <mxCell id="4ouf-nLLQ8_bu4aq0wLi-2" value="Tipo de Filme" style="rounded=0;whiteSpace=wrap;html=1;" parent="1" vertex="1">
          <mxGeometry x="100" y="280" width="100" height="50" as="geometry" />
        </mxCell>
        <mxCell id="4ouf-nLLQ8_bu4aq0wLi-3" value="Personagem" style="rounded=0;whiteSpace=wrap;html=1;" parent="1" vertex="1">
          <mxGeometry x="1020" y="110" width="100" height="50" as="geometry" />
        </mxCell>
        <mxCell id="4ouf-nLLQ8_bu4aq0wLi-4" value="Estúdio" style="rounded=0;whiteSpace=wrap;html=1;" parent="1" vertex="1">
          <mxGeometry x="350" y="-210" width="100" height="50" as="geometry" />
        </mxCell>
        <mxCell id="4ouf-nLLQ8_bu4aq0wLi-5" value="Prémio" style="rounded=0;whiteSpace=wrap;html=1;" parent="1" vertex="1">
          <mxGeometry x="660" y="-320" width="100" height="50" as="geometry" />
        </mxCell>
        <mxCell id="4ouf-nLLQ8_bu4aq0wLi-6" value="Realizador" style="rounded=0;whiteSpace=wrap;html=1;" parent="1" vertex="1">
          <mxGeometry x="20" y="-60" width="100" height="50" as="geometry" />
        </mxCell>
        <mxCell id="4ouf-nLLQ8_bu4aq0wLi-7" value="Ator" style="rounded=0;whiteSpace=wrap;html=1;" parent="1" vertex="1">
          <mxGeometry x="1020" y="-60" width="100" height="50" as="geometry" />
        </mxCell>
        <mxCell id="4ouf-nLLQ8_bu4aq0wLi-8" value="Participa" style="rhombus;whiteSpace=wrap;html=1;" parent="1" vertex="1">
          <mxGeometry x="280" y="110" width="80" height="50" as="geometry" />
        </mxCell>
        <mxCell id="4ouf-nLLQ8_bu4aq0wLi-10" value="" style="endArrow=none;html=1;rounded=0;entryX=0;entryY=0.5;entryDx=0;entryDy=0;exitX=1;exitY=0.5;exitDx=0;exitDy=0;shape=link;" parent="1" source="4ouf-nLLQ8_bu4aq0wLi-1" target="4ouf-nLLQ8_bu4aq0wLi-8" edge="1">
          <mxGeometry width="50" height="50" relative="1" as="geometry">
            <mxPoint x="190" y="340" as="sourcePoint" />
            <mxPoint x="240" y="290" as="targetPoint" />
          </mxGeometry>
        </mxCell>
        <mxCell id="4ouf-nLLQ8_bu4aq0wLi-89" value="N" style="edgeLabel;html=1;align=center;verticalAlign=middle;resizable=0;points=[];" parent="4ouf-nLLQ8_bu4aq0wLi-10" vertex="1" connectable="0">
          <mxGeometry x="0.15" relative="1" as="geometry">
            <mxPoint x="4" y="15" as="offset" />
          </mxGeometry>
        </mxCell>
        <mxCell id="4ouf-nLLQ8_bu4aq0wLi-12" value="Realiza" style="rhombus;whiteSpace=wrap;html=1;" parent="1" vertex="1">
          <mxGeometry x="30" y="20" width="80" height="50" as="geometry" />
        </mxCell>
        <mxCell id="4ouf-nLLQ8_bu4aq0wLi-14" value="N" style="endArrow=none;html=1;rounded=0;entryX=1;entryY=1;entryDx=0;entryDy=0;exitX=0.5;exitY=0;exitDx=0;exitDy=0;shape=link;" parent="1" source="4ouf-nLLQ8_bu4aq0wLi-1" target="4ouf-nLLQ8_bu4aq0wLi-12" edge="1">
          <mxGeometry x="-0.3156" y="-16" width="50" height="50" relative="1" as="geometry">
            <mxPoint x="270" y="63" as="sourcePoint" />
            <mxPoint x="330" y="40" as="targetPoint" />
            <mxPoint as="offset" />
          </mxGeometry>
        </mxCell>
        <mxCell id="4ouf-nLLQ8_bu4aq0wLi-15" value="" style="endArrow=none;html=1;rounded=0;entryX=0;entryY=0.5;entryDx=0;entryDy=0;exitX=1;exitY=0.5;exitDx=0;exitDy=0;shape=link;" parent="1" source="4ouf-nLLQ8_bu4aq0wLi-8" target="4ouf-nLLQ8_bu4aq0wLi-3" edge="1">
          <mxGeometry width="50" height="50" relative="1" as="geometry">
            <mxPoint x="600" y="135" as="sourcePoint" />
            <mxPoint x="630" y="105" as="targetPoint" />
          </mxGeometry>
        </mxCell>
        <mxCell id="4ouf-nLLQ8_bu4aq0wLi-90" value="N" style="edgeLabel;html=1;align=center;verticalAlign=middle;resizable=0;points=[];" parent="4ouf-nLLQ8_bu4aq0wLi-15" vertex="1" connectable="0">
          <mxGeometry x="0.2815" y="1" relative="1" as="geometry">
            <mxPoint x="-73" y="16" as="offset" />
          </mxGeometry>
        </mxCell>
        <mxCell id="4ouf-nLLQ8_bu4aq0wLi-16" value="Atua" style="rhombus;whiteSpace=wrap;html=1;" parent="1" vertex="1">
          <mxGeometry x="1030" y="20" width="80" height="50" as="geometry" />
        </mxCell>
        <mxCell id="4ouf-nLLQ8_bu4aq0wLi-17" value="" style="endArrow=none;html=1;rounded=0;entryX=0.5;entryY=1;entryDx=0;entryDy=0;exitX=0.5;exitY=0;exitDx=0;exitDy=0;shape=link;" parent="1" source="4ouf-nLLQ8_bu4aq0wLi-3" target="4ouf-nLLQ8_bu4aq0wLi-16" edge="1">
          <mxGeometry width="50" height="50" relative="1" as="geometry">
            <mxPoint x="760" y="80" as="sourcePoint" />
            <mxPoint x="760" y="145" as="targetPoint" />
          </mxGeometry>
        </mxCell>
        <mxCell id="4ouf-nLLQ8_bu4aq0wLi-97" value="N" style="edgeLabel;html=1;align=center;verticalAlign=middle;resizable=0;points=[];" parent="4ouf-nLLQ8_bu4aq0wLi-17" vertex="1" connectable="0">
          <mxGeometry x="0.05" relative="1" as="geometry">
            <mxPoint x="10" y="1" as="offset" />
          </mxGeometry>
        </mxCell>
        <mxCell id="4ouf-nLLQ8_bu4aq0wLi-18" value="N" style="endArrow=none;html=1;rounded=0;entryX=0.5;entryY=1;entryDx=0;entryDy=0;exitX=0.5;exitY=0;exitDx=0;exitDy=0;" parent="1" source="4ouf-nLLQ8_bu4aq0wLi-16" target="4ouf-nLLQ8_bu4aq0wLi-7" edge="1">
          <mxGeometry x="0.3333" y="-10" width="50" height="50" relative="1" as="geometry">
            <mxPoint x="810" y="145" as="sourcePoint" />
            <mxPoint x="840" y="145" as="targetPoint" />
            <mxPoint as="offset" />
          </mxGeometry>
        </mxCell>
        <mxCell id="4ouf-nLLQ8_bu4aq0wLi-19" value="Pessoa" style="rounded=0;whiteSpace=wrap;html=1;" parent="1" vertex="1">
          <mxGeometry x="110" y="-210" width="100" height="50" as="geometry" />
        </mxCell>
        <mxCell id="4ouf-nLLQ8_bu4aq0wLi-20" value="" style="triangle;whiteSpace=wrap;html=1;direction=north;" parent="1" vertex="1">
          <mxGeometry x="142.5" y="-160" width="35" height="20" as="geometry" />
        </mxCell>
        <mxCell id="4ouf-nLLQ8_bu4aq0wLi-22" value="" style="endArrow=none;html=1;rounded=0;entryX=0;entryY=0.5;entryDx=0;entryDy=0;exitX=0.5;exitY=0;exitDx=0;exitDy=0;edgeStyle=orthogonalEdgeStyle;" parent="1" source="4ouf-nLLQ8_bu4aq0wLi-7" target="4ouf-nLLQ8_bu4aq0wLi-20" edge="1">
          <mxGeometry width="50" height="50" relative="1" as="geometry">
            <mxPoint x="850" y="15" as="sourcePoint" />
            <mxPoint x="440" y="-140" as="targetPoint" />
          </mxGeometry>
        </mxCell>
        <mxCell id="4ouf-nLLQ8_bu4aq0wLi-88" value="{Opcional, E}" style="edgeLabel;html=1;align=center;verticalAlign=middle;resizable=0;points=[];" parent="4ouf-nLLQ8_bu4aq0wLi-22" vertex="1" connectable="0">
          <mxGeometry x="0.72" relative="1" as="geometry">
            <mxPoint x="-4" y="-10" as="offset" />
          </mxGeometry>
        </mxCell>
        <mxCell id="4ouf-nLLQ8_bu4aq0wLi-24" value="N" style="endArrow=none;html=1;rounded=0;entryX=0.5;entryY=1;entryDx=0;entryDy=0;exitX=0.5;exitY=0;exitDx=0;exitDy=0;" parent="1" source="4ouf-nLLQ8_bu4aq0wLi-12" target="4ouf-nLLQ8_bu4aq0wLi-6" edge="1">
          <mxGeometry x="0.3333" y="-10" width="50" height="50" relative="1" as="geometry">
            <mxPoint x="160" y="120" as="sourcePoint" />
            <mxPoint x="100" y="80" as="targetPoint" />
            <mxPoint as="offset" />
          </mxGeometry>
        </mxCell>
        <mxCell id="4ouf-nLLQ8_bu4aq0wLi-25" value="" style="endArrow=none;html=1;rounded=0;exitX=0.5;exitY=0;exitDx=0;exitDy=0;edgeStyle=orthogonalEdgeStyle;entryX=0;entryY=0.5;entryDx=0;entryDy=0;" parent="1" source="4ouf-nLLQ8_bu4aq0wLi-6" target="4ouf-nLLQ8_bu4aq0wLi-20" edge="1">
          <mxGeometry width="50" height="50" relative="1" as="geometry">
            <mxPoint x="340" y="-50" as="sourcePoint" />
            <mxPoint x="160" y="-130" as="targetPoint" />
            <Array as="points">
              <mxPoint x="70" y="-100" />
              <mxPoint x="161" y="-100" />
            </Array>
          </mxGeometry>
        </mxCell>
        <mxCell id="4ouf-nLLQ8_bu4aq0wLi-26" value="Gênero" style="ellipse;whiteSpace=wrap;html=1;" parent="1" vertex="1">
          <mxGeometry x="30" y="370" width="80" height="50" as="geometry" />
        </mxCell>
        <mxCell id="4ouf-nLLQ8_bu4aq0wLi-27" value="Estilo" style="ellipse;whiteSpace=wrap;html=1;" parent="1" vertex="1">
          <mxGeometry x="190" y="370" width="80" height="50" as="geometry" />
        </mxCell>
        <mxCell id="4ouf-nLLQ8_bu4aq0wLi-29" value="Contrata" style="rhombus;whiteSpace=wrap;html=1;" parent="1" vertex="1">
          <mxGeometry x="240" y="-210" width="80" height="50" as="geometry" />
        </mxCell>
        <mxCell id="4ouf-nLLQ8_bu4aq0wLi-30" value="" style="endArrow=none;html=1;rounded=0;entryX=0;entryY=0.5;entryDx=0;entryDy=0;exitX=1;exitY=0.5;exitDx=0;exitDy=0;" parent="1" source="4ouf-nLLQ8_bu4aq0wLi-29" target="4ouf-nLLQ8_bu4aq0wLi-4" edge="1">
          <mxGeometry width="50" height="50" relative="1" as="geometry">
            <mxPoint x="410" y="120" as="sourcePoint" />
            <mxPoint x="410" y="80" as="targetPoint" />
          </mxGeometry>
        </mxCell>
        <mxCell id="4ouf-nLLQ8_bu4aq0wLi-31" value="" style="endArrow=none;html=1;rounded=0;entryX=0;entryY=0.5;entryDx=0;entryDy=0;exitX=1;exitY=0.5;exitDx=0;exitDy=0;shape=link;" parent="1" source="4ouf-nLLQ8_bu4aq0wLi-19" target="4ouf-nLLQ8_bu4aq0wLi-29" edge="1">
          <mxGeometry width="50" height="50" relative="1" as="geometry">
            <mxPoint x="420" y="130" as="sourcePoint" />
            <mxPoint x="420" y="90" as="targetPoint" />
          </mxGeometry>
        </mxCell>
        <mxCell id="4ouf-nLLQ8_bu4aq0wLi-39" value="&lt;u&gt;Id&lt;/u&gt;" style="ellipse;whiteSpace=wrap;html=1;" parent="1" vertex="1">
          <mxGeometry x="630" y="-410" width="80" height="50" as="geometry" />
        </mxCell>
        <mxCell id="4ouf-nLLQ8_bu4aq0wLi-40" value="Categoria" style="ellipse;whiteSpace=wrap;html=1;" parent="1" vertex="1">
          <mxGeometry x="710" y="-410" width="80" height="50" as="geometry" />
        </mxCell>
        <mxCell id="4ouf-nLLQ8_bu4aq0wLi-41" value="Ano" style="ellipse;whiteSpace=wrap;html=1;" parent="1" vertex="1">
          <mxGeometry x="800" y="-370" width="80" height="50" as="geometry" />
        </mxCell>
        <mxCell id="4ouf-nLLQ8_bu4aq0wLi-42" value="" style="endArrow=none;html=1;rounded=0;entryX=0.25;entryY=0;entryDx=0;entryDy=0;exitX=0.5;exitY=1;exitDx=0;exitDy=0;" parent="1" source="4ouf-nLLQ8_bu4aq0wLi-39" target="4ouf-nLLQ8_bu4aq0wLi-5" edge="1">
          <mxGeometry width="50" height="50" relative="1" as="geometry">
            <mxPoint x="640" y="-85" as="sourcePoint" />
            <mxPoint x="290" y="-45" as="targetPoint" />
          </mxGeometry>
        </mxCell>
        <mxCell id="4ouf-nLLQ8_bu4aq0wLi-43" value="" style="endArrow=none;html=1;rounded=0;entryX=0.75;entryY=0;entryDx=0;entryDy=0;exitX=0.425;exitY=1.02;exitDx=0;exitDy=0;exitPerimeter=0;" parent="1" source="4ouf-nLLQ8_bu4aq0wLi-40" target="4ouf-nLLQ8_bu4aq0wLi-5" edge="1">
          <mxGeometry width="50" height="50" relative="1" as="geometry">
            <mxPoint x="422" y="-17" as="sourcePoint" />
            <mxPoint x="400" y="-7" as="targetPoint" />
          </mxGeometry>
        </mxCell>
        <mxCell id="4ouf-nLLQ8_bu4aq0wLi-44" value="" style="endArrow=none;html=1;rounded=0;entryX=0;entryY=1;entryDx=0;entryDy=0;exitX=1;exitY=0.75;exitDx=0;exitDy=0;" parent="1" source="4ouf-nLLQ8_bu4aq0wLi-5" target="4ouf-nLLQ8_bu4aq0wLi-41" edge="1">
          <mxGeometry width="50" height="50" relative="1" as="geometry">
            <mxPoint x="432" y="-7" as="sourcePoint" />
            <mxPoint x="410" y="3" as="targetPoint" />
            <Array as="points" />
          </mxGeometry>
        </mxCell>
        <mxCell id="4ouf-nLLQ8_bu4aq0wLi-45" value="" style="endArrow=none;html=1;rounded=0;entryX=0.419;entryY=0;entryDx=0;entryDy=0;exitX=0.75;exitY=1;exitDx=0;exitDy=0;entryPerimeter=0;" parent="1" source="4ouf-nLLQ8_bu4aq0wLi-2" target="4ouf-nLLQ8_bu4aq0wLi-27" edge="1">
          <mxGeometry width="50" height="50" relative="1" as="geometry">
            <mxPoint x="442" y="63" as="sourcePoint" />
            <mxPoint x="420" y="73" as="targetPoint" />
          </mxGeometry>
        </mxCell>
        <mxCell id="4ouf-nLLQ8_bu4aq0wLi-47" value="" style="endArrow=none;html=1;rounded=0;entryX=0.5;entryY=0;entryDx=0;entryDy=0;exitX=0.25;exitY=1;exitDx=0;exitDy=0;shape=link;" parent="1" source="4ouf-nLLQ8_bu4aq0wLi-2" target="4ouf-nLLQ8_bu4aq0wLi-26" edge="1">
          <mxGeometry width="50" height="50" relative="1" as="geometry">
            <mxPoint x="185" y="300" as="sourcePoint" />
            <mxPoint x="221" y="330" as="targetPoint" />
          </mxGeometry>
        </mxCell>
        <mxCell id="4ouf-nLLQ8_bu4aq0wLi-49" value="Possui" style="rhombus;whiteSpace=wrap;html=1;" parent="1" vertex="1">
          <mxGeometry x="110" y="200" width="80" height="50" as="geometry" />
        </mxCell>
        <mxCell id="4ouf-nLLQ8_bu4aq0wLi-50" value="N" style="endArrow=none;html=1;rounded=0;entryX=0.5;entryY=0;entryDx=0;entryDy=0;exitX=0.5;exitY=1;exitDx=0;exitDy=0;shape=link;" parent="1" source="4ouf-nLLQ8_bu4aq0wLi-49" target="4ouf-nLLQ8_bu4aq0wLi-2" edge="1">
          <mxGeometry x="-0.3333" y="10" width="50" height="50" relative="1" as="geometry">
            <mxPoint x="185" y="340" as="sourcePoint" />
            <mxPoint x="222" y="380" as="targetPoint" />
            <mxPoint as="offset" />
          </mxGeometry>
        </mxCell>
        <mxCell id="4ouf-nLLQ8_bu4aq0wLi-51" value="N" style="endArrow=none;html=1;rounded=0;entryX=0.5;entryY=1;entryDx=0;entryDy=0;exitX=0.5;exitY=0;exitDx=0;exitDy=0;shape=link;" parent="1" source="4ouf-nLLQ8_bu4aq0wLi-49" target="4ouf-nLLQ8_bu4aq0wLi-1" edge="1">
          <mxGeometry y="-10" width="50" height="50" relative="1" as="geometry">
            <mxPoint x="195" y="350" as="sourcePoint" />
            <mxPoint x="232" y="390" as="targetPoint" />
            <mxPoint as="offset" />
          </mxGeometry>
        </mxCell>
        <mxCell id="4ouf-nLLQ8_bu4aq0wLi-52" value="&lt;u&gt;Id&lt;/u&gt;" style="ellipse;whiteSpace=wrap;html=1;" parent="1" vertex="1">
          <mxGeometry x="-30" y="110" width="80" height="50" as="geometry" />
        </mxCell>
        <mxCell id="4ouf-nLLQ8_bu4aq0wLi-53" value="" style="endArrow=none;html=1;rounded=0;entryX=1;entryY=0.5;entryDx=0;entryDy=0;exitX=0;exitY=0.5;exitDx=0;exitDy=0;" parent="1" source="4ouf-nLLQ8_bu4aq0wLi-1" target="4ouf-nLLQ8_bu4aq0wLi-52" edge="1">
          <mxGeometry width="50" height="50" relative="1" as="geometry">
            <mxPoint x="160" y="120" as="sourcePoint" />
            <mxPoint x="100" y="68" as="targetPoint" />
          </mxGeometry>
        </mxCell>
        <mxCell id="4ouf-nLLQ8_bu4aq0wLi-54" value="Nome" style="ellipse;whiteSpace=wrap;html=1;" parent="1" vertex="1">
          <mxGeometry x="-30" y="160" width="80" height="50" as="geometry" />
        </mxCell>
        <mxCell id="4ouf-nLLQ8_bu4aq0wLi-55" value="Ano" style="ellipse;whiteSpace=wrap;html=1;" parent="1" vertex="1">
          <mxGeometry x="-30" y="60" width="80" height="50" as="geometry" />
        </mxCell>
        <mxCell id="4ouf-nLLQ8_bu4aq0wLi-56" value="" style="endArrow=none;html=1;rounded=0;entryX=1;entryY=0.5;entryDx=0;entryDy=0;exitX=0;exitY=0.25;exitDx=0;exitDy=0;" parent="1" source="4ouf-nLLQ8_bu4aq0wLi-1" target="4ouf-nLLQ8_bu4aq0wLi-55" edge="1">
          <mxGeometry width="50" height="50" relative="1" as="geometry">
            <mxPoint x="110" y="145" as="sourcePoint" />
            <mxPoint x="60" y="145" as="targetPoint" />
          </mxGeometry>
        </mxCell>
        <mxCell id="4ouf-nLLQ8_bu4aq0wLi-57" value="" style="endArrow=none;html=1;rounded=0;entryX=1;entryY=0.5;entryDx=0;entryDy=0;exitX=0;exitY=0.75;exitDx=0;exitDy=0;" parent="1" source="4ouf-nLLQ8_bu4aq0wLi-1" target="4ouf-nLLQ8_bu4aq0wLi-54" edge="1">
          <mxGeometry width="50" height="50" relative="1" as="geometry">
            <mxPoint x="120" y="155" as="sourcePoint" />
            <mxPoint x="70" y="155" as="targetPoint" />
          </mxGeometry>
        </mxCell>
        <mxCell id="4ouf-nLLQ8_bu4aq0wLi-59" value="Nome" style="ellipse;whiteSpace=wrap;html=1;" parent="1" vertex="1">
          <mxGeometry x="180" y="-320" width="80" height="50" as="geometry" />
        </mxCell>
        <mxCell id="4ouf-nLLQ8_bu4aq0wLi-60" value="&lt;u&gt;Email&lt;/u&gt;" style="ellipse;whiteSpace=wrap;html=1;" parent="1" vertex="1">
          <mxGeometry x="20" y="-330" width="80" height="50" as="geometry" />
        </mxCell>
        <mxCell id="4ouf-nLLQ8_bu4aq0wLi-61" value="Morada" style="ellipse;whiteSpace=wrap;html=1;" parent="1" vertex="1">
          <mxGeometry x="-20" y="-280" width="80" height="50" as="geometry" />
        </mxCell>
        <mxCell id="4ouf-nLLQ8_bu4aq0wLi-63" value="Nome" style="ellipse;whiteSpace=wrap;html=1;" parent="1" vertex="1">
          <mxGeometry x="480" y="-220" width="80" height="50" as="geometry" />
        </mxCell>
        <mxCell id="4ouf-nLLQ8_bu4aq0wLi-65" value="Morada" style="ellipse;whiteSpace=wrap;html=1;" parent="1" vertex="1">
          <mxGeometry x="385" y="-290" width="80" height="50" as="geometry" />
        </mxCell>
        <mxCell id="4ouf-nLLQ8_bu4aq0wLi-66" value="&lt;u&gt;Id&lt;/u&gt;" style="ellipse;whiteSpace=wrap;html=1;" parent="1" vertex="1">
          <mxGeometry x="110" y="370" width="80" height="50" as="geometry" />
        </mxCell>
        <mxCell id="4ouf-nLLQ8_bu4aq0wLi-67" value="" style="endArrow=none;html=1;rounded=0;entryX=0.5;entryY=0;entryDx=0;entryDy=0;exitX=0.5;exitY=1;exitDx=0;exitDy=0;" parent="1" source="4ouf-nLLQ8_bu4aq0wLi-2" target="4ouf-nLLQ8_bu4aq0wLi-66" edge="1">
          <mxGeometry width="50" height="50" relative="1" as="geometry">
            <mxPoint x="185" y="340" as="sourcePoint" />
            <mxPoint x="234" y="380" as="targetPoint" />
          </mxGeometry>
        </mxCell>
        <mxCell id="4ouf-nLLQ8_bu4aq0wLi-124" style="edgeStyle=orthogonalEdgeStyle;rounded=0;orthogonalLoop=1;jettySize=auto;html=1;exitX=0;exitY=0.5;exitDx=0;exitDy=0;entryX=1;entryY=0.5;entryDx=0;entryDy=0;endArrow=none;startFill=0;" parent="1" source="4ouf-nLLQ8_bu4aq0wLi-68" target="4ouf-nLLQ8_bu4aq0wLi-7" edge="1">
          <mxGeometry relative="1" as="geometry" />
        </mxCell>
        <mxCell id="4ouf-nLLQ8_bu4aq0wLi-68" value="&lt;u&gt;Id&lt;/u&gt;" style="ellipse;whiteSpace=wrap;html=1;" parent="1" vertex="1">
          <mxGeometry x="1150" y="-60" width="80" height="50" as="geometry" />
        </mxCell>
        <mxCell id="4ouf-nLLQ8_bu4aq0wLi-69" value="&lt;u&gt;Id&lt;/u&gt;" style="ellipse;whiteSpace=wrap;html=1;" parent="1" vertex="1">
          <mxGeometry x="-80" y="-60" width="80" height="50" as="geometry" />
        </mxCell>
        <mxCell id="4ouf-nLLQ8_bu4aq0wLi-70" value="" style="endArrow=none;html=1;rounded=0;entryX=0;entryY=0.5;entryDx=0;entryDy=0;exitX=1;exitY=0.5;exitDx=0;exitDy=0;" parent="1" source="4ouf-nLLQ8_bu4aq0wLi-69" target="4ouf-nLLQ8_bu4aq0wLi-6" edge="1">
          <mxGeometry width="50" height="50" relative="1" as="geometry">
            <mxPoint x="80" y="30" as="sourcePoint" />
            <mxPoint x="80" as="targetPoint" />
          </mxGeometry>
        </mxCell>
        <mxCell id="4ouf-nLLQ8_bu4aq0wLi-72" value="" style="endArrow=none;html=1;rounded=0;entryX=1;entryY=1;entryDx=0;entryDy=0;exitX=0;exitY=0;exitDx=0;exitDy=0;" parent="1" source="4ouf-nLLQ8_bu4aq0wLi-19" target="4ouf-nLLQ8_bu4aq0wLi-61" edge="1">
          <mxGeometry width="50" height="50" relative="1" as="geometry">
            <mxPoint x="100" y="50" as="sourcePoint" />
            <mxPoint x="100" y="20" as="targetPoint" />
          </mxGeometry>
        </mxCell>
        <mxCell id="4ouf-nLLQ8_bu4aq0wLi-73" value="" style="endArrow=none;html=1;rounded=0;entryX=0.5;entryY=1;entryDx=0;entryDy=0;exitX=0.25;exitY=0;exitDx=0;exitDy=0;" parent="1" source="4ouf-nLLQ8_bu4aq0wLi-19" target="4ouf-nLLQ8_bu4aq0wLi-60" edge="1">
          <mxGeometry width="50" height="50" relative="1" as="geometry">
            <mxPoint x="110" y="60" as="sourcePoint" />
            <mxPoint x="110" y="30" as="targetPoint" />
          </mxGeometry>
        </mxCell>
        <mxCell id="4ouf-nLLQ8_bu4aq0wLi-75" value="" style="endArrow=none;html=1;rounded=0;entryX=0.5;entryY=1;entryDx=0;entryDy=0;exitX=1;exitY=0;exitDx=0;exitDy=0;" parent="1" source="4ouf-nLLQ8_bu4aq0wLi-19" target="4ouf-nLLQ8_bu4aq0wLi-59" edge="1">
          <mxGeometry width="50" height="50" relative="1" as="geometry">
            <mxPoint x="155" y="-190" as="sourcePoint" />
            <mxPoint x="140" y="-260" as="targetPoint" />
          </mxGeometry>
        </mxCell>
        <mxCell id="4ouf-nLLQ8_bu4aq0wLi-76" value="" style="endArrow=none;html=1;rounded=0;entryX=0.5;entryY=1;entryDx=0;entryDy=0;exitX=0.5;exitY=0;exitDx=0;exitDy=0;" parent="1" source="4ouf-nLLQ8_bu4aq0wLi-4" target="4ouf-nLLQ8_bu4aq0wLi-65" edge="1">
          <mxGeometry width="50" height="50" relative="1" as="geometry">
            <mxPoint x="165" y="-180" as="sourcePoint" />
            <mxPoint x="150" y="-250" as="targetPoint" />
          </mxGeometry>
        </mxCell>
        <mxCell id="4ouf-nLLQ8_bu4aq0wLi-78" value="" style="endArrow=none;html=1;rounded=0;entryX=0;entryY=0.5;entryDx=0;entryDy=0;exitX=1;exitY=0.5;exitDx=0;exitDy=0;" parent="1" source="4ouf-nLLQ8_bu4aq0wLi-4" target="4ouf-nLLQ8_bu4aq0wLi-63" edge="1">
          <mxGeometry width="50" height="50" relative="1" as="geometry">
            <mxPoint x="185" y="-160" as="sourcePoint" />
            <mxPoint x="170" y="-230" as="targetPoint" />
          </mxGeometry>
        </mxCell>
        <mxCell id="4ouf-nLLQ8_bu4aq0wLi-79" value="&lt;u&gt;Id&lt;/u&gt;" style="ellipse;whiteSpace=wrap;html=1;" parent="1" vertex="1">
          <mxGeometry x="980" y="210" width="80" height="50" as="geometry" />
        </mxCell>
        <mxCell id="4ouf-nLLQ8_bu4aq0wLi-80" value="Nome" style="ellipse;whiteSpace=wrap;html=1;" parent="1" vertex="1">
          <mxGeometry x="1080" y="210" width="80" height="50" as="geometry" />
        </mxCell>
        <mxCell id="4ouf-nLLQ8_bu4aq0wLi-82" value="Telemóvel" style="ellipse;whiteSpace=wrap;html=1;" parent="1" vertex="1">
          <mxGeometry x="100" y="-330" width="80" height="50" as="geometry" />
        </mxCell>
        <mxCell id="4ouf-nLLQ8_bu4aq0wLi-83" value="" style="endArrow=none;html=1;rounded=0;entryX=0.5;entryY=1;entryDx=0;entryDy=0;exitX=0.75;exitY=0;exitDx=0;exitDy=0;shape=link;" parent="1" source="4ouf-nLLQ8_bu4aq0wLi-19" target="4ouf-nLLQ8_bu4aq0wLi-82" edge="1">
          <mxGeometry width="50" height="50" relative="1" as="geometry">
            <mxPoint x="170" y="-200" as="sourcePoint" />
            <mxPoint x="150" y="-280" as="targetPoint" />
          </mxGeometry>
        </mxCell>
        <mxCell id="4ouf-nLLQ8_bu4aq0wLi-84" value="" style="endArrow=none;html=1;rounded=0;entryX=0.75;entryY=1;entryDx=0;entryDy=0;exitX=0.5;exitY=0;exitDx=0;exitDy=0;" parent="1" source="4ouf-nLLQ8_bu4aq0wLi-80" target="4ouf-nLLQ8_bu4aq0wLi-3" edge="1">
          <mxGeometry width="50" height="50" relative="1" as="geometry">
            <mxPoint x="770" y="120" as="sourcePoint" />
            <mxPoint x="770" y="80" as="targetPoint" />
          </mxGeometry>
        </mxCell>
        <mxCell id="4ouf-nLLQ8_bu4aq0wLi-85" value="" style="endArrow=none;html=1;rounded=0;exitX=0.5;exitY=0;exitDx=0;exitDy=0;entryX=0.25;entryY=1;entryDx=0;entryDy=0;" parent="1" source="4ouf-nLLQ8_bu4aq0wLi-79" target="4ouf-nLLQ8_bu4aq0wLi-3" edge="1">
          <mxGeometry width="50" height="50" relative="1" as="geometry">
            <mxPoint x="780" y="130" as="sourcePoint" />
            <mxPoint x="740" y="160" as="targetPoint" />
          </mxGeometry>
        </mxCell>
        <mxCell id="4ouf-nLLQ8_bu4aq0wLi-86" value="&lt;u&gt;Código Postal&lt;/u&gt;" style="ellipse;whiteSpace=wrap;html=1;" parent="1" vertex="1">
          <mxGeometry x="470" y="-280" width="80" height="50" as="geometry" />
        </mxCell>
        <mxCell id="4ouf-nLLQ8_bu4aq0wLi-87" value="" style="endArrow=none;html=1;rounded=0;entryX=0;entryY=1;entryDx=0;entryDy=0;exitX=1;exitY=0;exitDx=0;exitDy=0;" parent="1" source="4ouf-nLLQ8_bu4aq0wLi-4" target="4ouf-nLLQ8_bu4aq0wLi-86" edge="1">
          <mxGeometry width="50" height="50" relative="1" as="geometry">
            <mxPoint x="410" y="-200" as="sourcePoint" />
            <mxPoint x="435" y="-230" as="targetPoint" />
          </mxGeometry>
        </mxCell>
        <mxCell id="4ouf-nLLQ8_bu4aq0wLi-103" value="" style="triangle;whiteSpace=wrap;html=1;direction=north;" parent="1" vertex="1">
          <mxGeometry x="692.5" y="-270" width="35" height="20" as="geometry" />
        </mxCell>
        <mxCell id="4ouf-nLLQ8_bu4aq0wLi-111" style="edgeStyle=orthogonalEdgeStyle;rounded=0;orthogonalLoop=1;jettySize=auto;html=1;endArrow=none;startFill=0;" parent="1" source="4ouf-nLLQ8_bu4aq0wLi-104" edge="1">
          <mxGeometry relative="1" as="geometry">
            <mxPoint x="710" y="-240" as="targetPoint" />
            <Array as="points">
              <mxPoint x="650" y="-240" />
            </Array>
          </mxGeometry>
        </mxCell>
        <mxCell id="4ouf-nLLQ8_bu4aq0wLi-118" value="N" style="edgeStyle=orthogonalEdgeStyle;rounded=0;orthogonalLoop=1;jettySize=auto;html=1;entryX=0.5;entryY=0;entryDx=0;entryDy=0;endArrow=none;startFill=0;shape=link;" parent="1" source="4ouf-nLLQ8_bu4aq0wLi-104" target="4ouf-nLLQ8_bu4aq0wLi-112" edge="1">
          <mxGeometry x="-0.6667" y="10" relative="1" as="geometry">
            <mxPoint as="offset" />
          </mxGeometry>
        </mxCell>
        <mxCell id="4ouf-nLLQ8_bu4aq0wLi-104" value="Prémio Ator" style="rounded=0;whiteSpace=wrap;html=1;" parent="1" vertex="1">
          <mxGeometry x="600" y="-230" width="100" height="50" as="geometry" />
        </mxCell>
        <mxCell id="4ouf-nLLQ8_bu4aq0wLi-109" style="edgeStyle=orthogonalEdgeStyle;rounded=0;orthogonalLoop=1;jettySize=auto;html=1;exitX=0.5;exitY=0;exitDx=0;exitDy=0;endArrow=none;startFill=0;" parent="1" source="4ouf-nLLQ8_bu4aq0wLi-105" edge="1">
          <mxGeometry relative="1" as="geometry">
            <mxPoint x="870" y="-240" as="targetPoint" />
          </mxGeometry>
        </mxCell>
        <mxCell id="4ouf-nLLQ8_bu4aq0wLi-116" value="N" style="edgeStyle=orthogonalEdgeStyle;rounded=0;orthogonalLoop=1;jettySize=auto;html=1;entryX=1;entryY=0.5;entryDx=0;entryDy=0;endArrow=none;startFill=0;shape=link;" parent="1" source="4ouf-nLLQ8_bu4aq0wLi-105" target="4ouf-nLLQ8_bu4aq0wLi-114" edge="1">
          <mxGeometry x="-0.5775" y="15" relative="1" as="geometry">
            <Array as="points">
              <mxPoint x="870" y="-135" />
            </Array>
            <mxPoint as="offset" />
          </mxGeometry>
        </mxCell>
        <mxCell id="4ouf-nLLQ8_bu4aq0wLi-105" value="Prémio&amp;nbsp;Estúdio" style="rounded=0;whiteSpace=wrap;html=1;" parent="1" vertex="1">
          <mxGeometry x="820" y="-230" width="100" height="50" as="geometry" />
        </mxCell>
        <mxCell id="4ouf-nLLQ8_bu4aq0wLi-120" value="N" style="rounded=0;orthogonalLoop=1;jettySize=auto;html=1;entryX=1;entryY=0.5;entryDx=0;entryDy=0;edgeStyle=orthogonalEdgeStyle;endArrow=none;startFill=0;shape=link;" parent="1" source="4ouf-nLLQ8_bu4aq0wLi-106" target="4ouf-nLLQ8_bu4aq0wLi-115" edge="1">
          <mxGeometry x="-0.0088" y="-10" relative="1" as="geometry">
            <Array as="points">
              <mxPoint x="740" y="-70" />
              <mxPoint x="515" y="-70" />
              <mxPoint x="515" y="-35" />
            </Array>
            <mxPoint as="offset" />
          </mxGeometry>
        </mxCell>
        <mxCell id="9WtdMfQzn8KKANPovYCe-2" style="edgeStyle=orthogonalEdgeStyle;rounded=0;orthogonalLoop=1;jettySize=auto;html=1;endArrow=none;startFill=0;" edge="1" parent="1" source="4ouf-nLLQ8_bu4aq0wLi-106">
          <mxGeometry relative="1" as="geometry">
            <mxPoint x="760" y="-240.00000000000023" as="targetPoint" />
          </mxGeometry>
        </mxCell>
        <mxCell id="4ouf-nLLQ8_bu4aq0wLi-106" value="Prémio&amp;nbsp;&lt;div&gt;Realizadore&lt;/div&gt;" style="rounded=0;whiteSpace=wrap;html=1;" parent="1" vertex="1">
          <mxGeometry x="710" y="-230" width="100" height="50" as="geometry" />
        </mxCell>
        <mxCell id="4ouf-nLLQ8_bu4aq0wLi-108" style="edgeStyle=orthogonalEdgeStyle;rounded=0;orthogonalLoop=1;jettySize=auto;html=1;entryX=0;entryY=0.5;entryDx=0;entryDy=0;endArrow=none;startFill=0;" parent="1" source="4ouf-nLLQ8_bu4aq0wLi-107" target="4ouf-nLLQ8_bu4aq0wLi-103" edge="1">
          <mxGeometry relative="1" as="geometry">
            <Array as="points">
              <mxPoint x="980" y="-240" />
              <mxPoint x="710" y="-240" />
            </Array>
          </mxGeometry>
        </mxCell>
        <mxCell id="4ouf-nLLQ8_bu4aq0wLi-125" value="{Mandatório, OU}" style="edgeLabel;html=1;align=center;verticalAlign=middle;resizable=0;points=[];" parent="4ouf-nLLQ8_bu4aq0wLi-108" vertex="1" connectable="0">
          <mxGeometry x="0.2138" relative="1" as="geometry">
            <mxPoint x="-4" y="-10" as="offset" />
          </mxGeometry>
        </mxCell>
        <mxCell id="4ouf-nLLQ8_bu4aq0wLi-107" value="Prémio&amp;nbsp;Filme" style="rounded=0;whiteSpace=wrap;html=1;" parent="1" vertex="1">
          <mxGeometry x="930" y="-230" width="100" height="50" as="geometry" />
        </mxCell>
        <mxCell id="4ouf-nLLQ8_bu4aq0wLi-119" value="1" style="edgeStyle=orthogonalEdgeStyle;rounded=0;orthogonalLoop=1;jettySize=auto;html=1;exitX=1;exitY=0.5;exitDx=0;exitDy=0;entryX=0;entryY=0.5;entryDx=0;entryDy=0;endArrow=none;startFill=0;" parent="1" source="4ouf-nLLQ8_bu4aq0wLi-112" target="4ouf-nLLQ8_bu4aq0wLi-7" edge="1">
          <mxGeometry x="0.0303" y="-15" relative="1" as="geometry">
            <mxPoint as="offset" />
          </mxGeometry>
        </mxCell>
        <mxCell id="4ouf-nLLQ8_bu4aq0wLi-112" value="Recebe" style="rhombus;whiteSpace=wrap;html=1;" parent="1" vertex="1">
          <mxGeometry x="610" y="-60" width="80" height="50" as="geometry" />
        </mxCell>
        <mxCell id="4ouf-nLLQ8_bu4aq0wLi-122" value="1" style="rounded=0;orthogonalLoop=1;jettySize=auto;html=1;exitX=0;exitY=0.5;exitDx=0;exitDy=0;entryX=1;entryY=0;entryDx=0;entryDy=0;endArrow=none;startFill=0;edgeStyle=orthogonalEdgeStyle;" parent="1" source="4ouf-nLLQ8_bu4aq0wLi-113" target="4ouf-nLLQ8_bu4aq0wLi-1" edge="1">
          <mxGeometry x="-0.0137" y="-15" relative="1" as="geometry">
            <Array as="points">
              <mxPoint x="190" y="75" />
              <mxPoint x="190" y="110" />
            </Array>
            <mxPoint as="offset" />
          </mxGeometry>
        </mxCell>
        <mxCell id="4ouf-nLLQ8_bu4aq0wLi-123" value="N" style="edgeStyle=orthogonalEdgeStyle;rounded=0;orthogonalLoop=1;jettySize=auto;html=1;exitX=1;exitY=0.5;exitDx=0;exitDy=0;entryX=0.5;entryY=1;entryDx=0;entryDy=0;endArrow=none;startFill=0;shape=link;" parent="1" source="4ouf-nLLQ8_bu4aq0wLi-113" target="4ouf-nLLQ8_bu4aq0wLi-107" edge="1">
          <mxGeometry x="0.0233" y="15" relative="1" as="geometry">
            <Array as="points">
              <mxPoint x="980" y="75" />
            </Array>
            <mxPoint as="offset" />
          </mxGeometry>
        </mxCell>
        <mxCell id="4ouf-nLLQ8_bu4aq0wLi-113" value="Recebe" style="rhombus;whiteSpace=wrap;html=1;" parent="1" vertex="1">
          <mxGeometry x="510" y="50" width="80" height="50" as="geometry" />
        </mxCell>
        <mxCell id="4ouf-nLLQ8_bu4aq0wLi-117" value="1" style="edgeStyle=orthogonalEdgeStyle;rounded=0;orthogonalLoop=1;jettySize=auto;html=1;entryX=0.5;entryY=1;entryDx=0;entryDy=0;endArrow=none;startFill=0;" parent="1" source="4ouf-nLLQ8_bu4aq0wLi-114" target="4ouf-nLLQ8_bu4aq0wLi-4" edge="1">
          <mxGeometry x="-0.0476" y="15" relative="1" as="geometry">
            <mxPoint as="offset" />
          </mxGeometry>
        </mxCell>
        <mxCell id="4ouf-nLLQ8_bu4aq0wLi-114" value="Recebe" style="rhombus;whiteSpace=wrap;html=1;" parent="1" vertex="1">
          <mxGeometry x="480" y="-160" width="80" height="50" as="geometry" />
        </mxCell>
        <mxCell id="4ouf-nLLQ8_bu4aq0wLi-121" value="1" style="edgeStyle=orthogonalEdgeStyle;rounded=0;orthogonalLoop=1;jettySize=auto;html=1;entryX=1;entryY=0.5;entryDx=0;entryDy=0;endArrow=none;startFill=0;" parent="1" source="4ouf-nLLQ8_bu4aq0wLi-115" target="4ouf-nLLQ8_bu4aq0wLi-6" edge="1">
          <mxGeometry y="-15" relative="1" as="geometry">
            <mxPoint as="offset" />
          </mxGeometry>
        </mxCell>
        <mxCell id="4ouf-nLLQ8_bu4aq0wLi-115" value="Recebe" style="rhombus;whiteSpace=wrap;html=1;" parent="1" vertex="1">
          <mxGeometry x="240" y="-60" width="80" height="50" as="geometry" />
        </mxCell>
      </root>
    </mxGraphModel>
  </diagram>
</mxfile>
